<svg height="512" viewBox="0 0 128 128" width="512" xmlns="http://www.w3.org/2000/svg">
  <g>
    <path
      d="m19.942 84.075 19.429-19.429a3.216 3.216 0 0 1 5.49 2.274v8.741h64.139a21.375 21.375 0 0 1 -21.375 21.375h-42.764v8.742a3.216 3.216 0 0 1 -5.49 2.274l-19.429-19.429a3.216 3.216 0 0 1 0-4.548z"
      fill="#8ac926"/>
    <path
      d="m108.058 44.359-19.429 19.429a3.216 3.216 0 0 1 -5.49-2.274v-8.742h-64.139a21.375 21.375 0 0 1 21.375-21.372h42.764v-8.745a3.216 3.216 0 0 1 5.49-2.274l19.429 19.429a3.217 3.217 0 0 1 0 4.549z"
      fill="#ffca3a"/>
  </g>
</svg>
